<svg width="28" height="28" viewBox="0 0 28 28" fill="none" xmlns="http://www.w3.org/2000/svg">
<path d="M6.99999 25.6667C6.38115 25.6667 5.78766 25.4208 5.35007 24.9832C4.91249 24.5457 4.66666 23.9522 4.66666 23.3333V4.66667C4.66666 4.04783 4.91249 3.45433 5.35007 3.01675C5.78766 2.57916 6.38115 2.33333 6.99999 2.33333H16.3333C16.7026 2.33273 17.0684 2.4052 17.4096 2.54656C17.7508 2.68792 18.0607 2.89538 18.3213 3.157L22.5073 7.343C22.7696 7.60376 22.9777 7.9139 23.1195 8.25552C23.2612 8.59714 23.3339 8.96346 23.3333 9.33333V23.3333C23.3333 23.9522 23.0875 24.5457 22.6499 24.9832C22.2123 25.4208 21.6188 25.6667 21 25.6667H6.99999Z" stroke="white" stroke-width="2.33333" stroke-linecap="round" stroke-linejoin="round"/>
<path d="M16.3333 2.33333V8.16666C16.3333 8.47608 16.4563 8.77283 16.6751 8.99162C16.8938 9.21041 17.1906 9.33333 17.5 9.33333H23.3333" stroke="white" stroke-width="2.33333" stroke-linecap="round" stroke-linejoin="round"/>
<path d="M11.6667 10.5H9.33334" stroke="white" stroke-width="2.33333" stroke-linecap="round" stroke-linejoin="round"/>
<path d="M18.6667 15.1667H9.33334" stroke="white" stroke-width="2.33333" stroke-linecap="round" stroke-linejoin="round"/>
<path d="M18.6667 19.8334H9.33334" stroke="white" stroke-width="2.33333" stroke-linecap="round" stroke-linejoin="round"/>
</svg>
