<svg width="28" height="28" viewBox="0 0 28 28" fill="none" xmlns="http://www.w3.org/2000/svg">
<path d="M11.9793 24.5C12.1841 24.8547 12.4787 25.1492 12.8334 25.354C13.1881 25.5588 13.5904 25.6666 14 25.6666C14.4096 25.6666 14.8119 25.5588 15.1666 25.354C15.5213 25.1492 15.8159 24.8547 16.0207 24.5" stroke="white" stroke-width="2.33333" stroke-linecap="round" stroke-linejoin="round"/>
<path d="M3.80567 17.8803C3.65326 18.0474 3.55268 18.2551 3.51617 18.4783C3.47965 18.7014 3.50877 18.9304 3.59999 19.1373C3.69121 19.3442 3.84059 19.5202 4.02997 19.6437C4.21934 19.7673 4.44054 19.8332 4.66667 19.8333H23.3333C23.5594 19.8334 23.7807 19.7678 23.9702 19.6445C24.1597 19.5211 24.3092 19.3454 24.4007 19.1386C24.4922 18.9318 24.5216 18.7029 24.4853 18.4798C24.4491 18.2566 24.3488 18.0487 24.1967 17.8815C22.645 16.282 21 14.5822 21 9.33334C21 7.47682 20.2625 5.69634 18.9498 4.38359C17.637 3.07083 15.8565 2.33334 14 2.33334C12.1435 2.33334 10.363 3.07083 9.05025 4.38359C7.7375 5.69634 7 7.47682 7 9.33334C7 14.5822 5.35384 16.282 3.80567 17.8803Z" stroke="white" stroke-width="2.33333" stroke-linecap="round" stroke-linejoin="round"/>
</svg>
